<?xml version="1.0" encoding="iso-8859-1"?>
<!-- Generator: Adobe Illustrator 19.0.0, SVG Export Plug-In . SVG Version: 6.00 Build 0)  -->
<svg version="1.1" id="Capa_1" xmlns="http://www.w3.org/2000/svg" xmlns:xlink="http://www.w3.org/1999/xlink" x="0px" y="0px"
	 viewBox="0 0 489.536 489.536" style="enable-background:new 0 0 489.536 489.536;" xml:space="preserve">
<g>
	<g>
		<path d="M117.036,173.518v105.6c0,11.4,9.4,20.8,20.8,20.8s20.8-9.4,20.8-20.8v-105.6c30.6-10.8,53.1-44.6,53.1-84.9
			c0-48.9-33.3-88.4-73.9-88.4s-73.9,39.5-73.9,88.4C63.936,128.818,86.436,162.718,117.036,173.518z M137.836,40.818
			c17.7,0,33.3,21.8,33.3,47.9c0,26-14.6,47.9-33.3,47.9s-33.3-21.8-33.3-47.9S120.136,40.818,137.836,40.818z"/>
		<path d="M333.436,143.918v135.2c0,11.4,9.4,20.8,20.8,20.8s20.8-9.4,20.8-20.8v-135.2c29.5-8.7,51.2-35.3,52-66.7v-56.2
			c0-11.4-9.4-20.8-20.8-20.8s-20.8,9.4-20.8,20.8v56.2c0,16.6-13.5,30.2-30.2,30.2c-16.6,0-30.2-13.5-30.2-30.2v-56.2
			c0-11.4-9.4-20.8-20.8-20.8s-20.8,9.4-20.8,20.8v55.1C283.536,108.418,304.336,135.118,333.436,143.918z"/>
		<path d="M489.036,351.918c-2.1-9.4-10.4-15.6-19.8-15.6h-448.9c-9.4,0-17.7,6.2-19.8,15.6s2.1,18.7,10.4,22.9
			c91.6,46.8,115.5,102,115.5,102c3.1,7.3,10.4,12.5,18.7,12.5h199.2c8.3,0,15.6-5.2,18.7-12.5c0,0,23.9-55.1,115.5-102
			C486.936,370.618,491.036,361.218,489.036,351.918z M331.936,448.618h-174.3c-9.4-14.6-29.1-41.6-66.6-70.7h307.4
			C361.036,407.018,341.236,434.118,331.936,448.618z"/>
	</g>
</g>
<g>
</g>
<g>
</g>
<g>
</g>
<g>
</g>
<g>
</g>
<g>
</g>
<g>
</g>
<g>
</g>
<g>
</g>
<g>
</g>
<g>
</g>
<g>
</g>
<g>
</g>
<g>
</g>
<g>
</g>
</svg>
