<?xml version="1.0" encoding="iso-8859-1"?>
<!-- Generator: Adobe Illustrator 19.0.0, SVG Export Plug-In . SVG Version: 6.00 Build 0)  -->
<svg version="1.1" id="Layer_1" xmlns="http://www.w3.org/2000/svg" xmlns:xlink="http://www.w3.org/1999/xlink" x="0px" y="0px"
	 viewBox="0 0 512 512" style="enable-background:new 0 0 512 512;" xml:space="preserve">
<g>
	<g>
		<g>
			<path d="M405.333,32H128c-11.782,0-21.333,9.551-21.333,21.333c0,11.782,9.551,21.333,21.333,21.333h277.333
				c35.343,0,64,28.657,64,64s-28.657,64-64,64H106.667C47.759,202.667,0,250.426,0,309.333S47.759,416,106.667,416h225.83
				l-27.582,27.582c-8.331,8.331-8.331,21.839,0,30.17c8.331,8.331,21.839,8.331,30.17,0l64-64c0.004-0.004,0.006-0.008,0.01-0.011
				c0.493-0.494,0.96-1.012,1.403-1.552c0.203-0.247,0.379-0.507,0.569-0.761c0.227-0.303,0.462-0.6,0.673-0.915
				c0.203-0.304,0.379-0.619,0.565-0.93c0.171-0.286,0.35-0.565,0.508-0.86c0.17-0.317,0.313-0.643,0.466-0.967
				c0.145-0.308,0.299-0.61,0.43-0.925c0.13-0.314,0.235-0.635,0.349-0.953c0.122-0.338,0.251-0.672,0.356-1.018
				c0.096-0.318,0.167-0.642,0.248-0.964c0.089-0.353,0.188-0.701,0.259-1.061c0.074-0.372,0.117-0.748,0.171-1.122
				c0.045-0.314,0.105-0.622,0.136-0.941c0.138-1.4,0.138-2.81,0-4.21c-0.031-0.318-0.091-0.627-0.136-0.941
				c-0.054-0.375-0.097-0.75-0.171-1.122c-0.071-0.359-0.17-0.708-0.259-1.061c-0.081-0.322-0.152-0.645-0.248-0.964
				c-0.105-0.346-0.234-0.68-0.356-1.018c-0.114-0.318-0.219-0.639-0.349-0.953c-0.131-0.315-0.284-0.618-0.43-0.925
				c-0.153-0.324-0.296-0.65-0.466-0.967c-0.158-0.294-0.337-0.574-0.508-0.86c-0.186-0.311-0.362-0.627-0.565-0.93
				c-0.211-0.316-0.447-0.613-0.674-0.917c-0.19-0.253-0.365-0.513-0.568-0.759c-0.446-0.544-0.916-1.067-1.413-1.563l-64-64
				c-8.331-8.331-21.839-8.331-30.17,0s-8.331,21.839,0,30.17l27.582,27.582h-225.83c-35.343,0-64-28.657-64-64s28.657-64,64-64
				h298.667c58.907,0,106.667-47.759,106.667-106.667S464.241,32,405.333,32z"/>
			<path d="M448,138.667C448,115.093,428.907,96,405.333,96c-23.573,0-42.667,19.093-42.667,42.667
				c0,23.573,19.093,42.667,42.667,42.667C428.907,181.333,448,162.24,448,138.667z"/>
		</g>
	</g>
</g>
<g>
</g>
<g>
</g>
<g>
</g>
<g>
</g>
<g>
</g>
<g>
</g>
<g>
</g>
<g>
</g>
<g>
</g>
<g>
</g>
<g>
</g>
<g>
</g>
<g>
</g>
<g>
</g>
<g>
</g>
</svg>
